<svg width="135" height="45" viewBox="0 0 135 45" fill="none" xmlns="http://www.w3.org/2000/svg">
<path d="M76.1669 2.10439L77.3084 3.33782C105.09 4.96124 127.214 13.7971 127.214 23.0115C127.214 33.405 100.443 41.8305 67.417 41.8305C34.3912 41.8305 7.61992 33.405 7.61992 23.0115C7.61992 13.3821 31.7713 4.179 61.4156 3.05894L62.4155 1.97742C27.7482 2.78232 0.40625 11.8902 0.40625 23.0047C0.40625 34.6498 30.4046 44.091 67.4062 44.091C104.408 44.091 134.406 34.6498 134.406 23.0047C134.419 12.2984 109.036 3.45346 76.1669 2.10439Z" fill="#2D314A"/>
<path d="M73.2011 0.0909424H65.3952L62.4492 3.21534L69.2981 11.0921L76.235 3.36271L73.2011 0.0909424Z" fill="#2D314A"/>
<path d="M25.1445 23.3448C25.1445 18.6967 28.5561 15.5225 32.9761 15.5225C37.3962 15.5225 40.8078 18.6967 40.8078 23.3448C40.8078 27.9928 37.3962 31.1671 32.9761 31.1671C28.5561 31.1671 25.1445 27.9928 25.1445 23.3448ZM36.4092 23.3448C36.4092 21.2362 35.0574 19.5583 32.9761 19.5583C30.8949 19.5583 29.5431 21.2362 29.5431 23.3448C29.5431 25.4534 30.8949 27.1312 32.9761 27.1312C35.0574 27.1312 36.4156 25.4534 36.4156 23.3448H36.4092Z" fill="#2D314A"/>
<path d="M56.1068 30.895V25.1043H50.9787V30.886H46.6445V15.7628H50.9787V21.1137H56.1068V15.7628H60.4475V30.886H56.1133L56.1068 30.895Z" fill="#2D314A"/>
<path d="M67.0508 30.895V15.7719H71.3914V30.895H67.0572H67.0508Z" fill="#2D314A"/>
<path d="M86.3388 30.895L83.1203 25.5668L82.3264 26.7004V30.895H77.9922V15.7719H82.3328V21.4402L86.0877 15.7719H91.3875L85.9804 22.8006L91.6235 30.895H86.3452H86.3388Z" fill="#2D314A"/>
<path d="M95.0488 23.3448C95.0488 18.6741 98.439 15.5225 102.923 15.5225C106.678 15.5225 108.566 17.8351 109.425 19.9211L105.691 21.7576C105.326 20.5786 104.211 19.5583 102.923 19.5583C100.842 19.5583 99.4474 21.2362 99.4474 23.3448C99.4474 25.4534 100.842 27.1312 102.923 27.1312C104.211 27.1312 105.326 26.1109 105.691 24.9319L109.425 26.7458C108.588 28.7637 106.678 31.1671 102.923 31.1671C98.439 31.1671 95.0488 27.9928 95.0488 23.3448Z" fill="#2D314A"/>
</svg>
